<mxfile host="app.diagrams.net" modified="2023-05-27T12:10:50.108Z" agent="Mozilla/5.0 (Windows NT 10.0; Win64; x64) AppleWebKit/537.36 (KHTML, like Gecko) Chrome/109.0.0.0 Safari/537.36" version="21.3.3" etag="35MS1jnAaP1frLjYZXFs" type="github">
  <diagram name="第 1 页" id="39_APPAiOw8bz9AKteXl">
    <mxGraphModel>
      <root>
        <mxCell id="0" />
        <mxCell id="1" parent="0" />
      </root>
    </mxGraphModel>
  </diagram>
</mxfile>
